<svg width="128" height="128" viewBox="0 0 128 128" fill="none" xmlns="http://www.w3.org/2000/svg">
<path d="M61.6726 62.8075C59.3612 56.3064 57.0996 49.9348 54.7981 43.4586C59.4708 40.7784 64.1384 38.1033 68.8509 35.4032C71.0676 41.7648 73.2595 48.0766 75.4912 54.488C70.9182 57.2429 66.3452 59.9928 61.6726 62.8075Z" fill="#EE4B4B"/>
<path d="M70.3159 87.2476C68.0543 80.866 65.8226 74.5692 63.5759 68.2275C68.1639 65.4228 72.7269 62.633 77.3945 59.7835C77.9425 61.3577 78.4606 62.8423 78.9786 64.3318C80.5378 68.8353 82.0821 73.3387 83.6662 77.8322C83.8754 78.43 83.8157 78.7389 83.2428 79.0975C79.0783 81.703 74.9436 84.3532 70.7941 86.9885C70.6795 87.0632 70.555 87.118 70.3159 87.2476Z" fill="#EE4B4B"/>
<path d="M85.7586 83.9497C87.0139 87.5215 88.2145 90.934 89.41 94.3464C90.2768 96.8174 91.1336 99.2982 92.0153 101.764C92.1747 102.213 92.1797 102.521 91.7264 102.82C87.537 105.6 83.3625 108.4 79.1781 111.19C79.1084 111.234 79.0237 111.254 78.8294 111.334C76.6276 105.102 74.4307 98.8848 72.214 92.6128C76.7172 89.7284 81.1757 86.8789 85.7536 83.9447L85.7586 83.9497Z" fill="#EE4B4B"/>
<path d="M86.2664 25.3798C86.9239 27.2828 87.5516 29.0912 88.1743 30.9095C89.589 35.0493 90.9739 39.199 92.4235 43.3239C92.6725 44.0263 92.5231 44.37 91.9154 44.7287C87.7658 47.1897 83.6312 49.6805 79.4019 52.2162C79.2575 51.8774 79.118 51.5885 79.0133 51.2896C77.0108 45.4959 75.0182 39.6972 73.0007 33.9085C72.8114 33.3705 72.8662 33.0815 73.3893 32.7826C77.4741 30.4313 81.5439 28.05 85.6188 25.6787C85.7832 25.5841 85.9675 25.5193 86.2664 25.3798Z" fill="#EE4B4B"/>
<path d="M94.4312 49.4961C96.5633 55.6983 98.6704 61.8208 100.783 67.9632C96.4288 70.728 92.1248 73.458 87.7261 76.2477C87.2977 75.0472 86.8843 73.9014 86.4858 72.7506C84.802 67.9034 83.1283 63.0562 81.4395 58.214C81.2901 57.7806 81.1954 57.4867 81.7085 57.1778C85.9179 54.6621 90.1123 52.1115 94.4312 49.4961Z" fill="#EE4B4B"/>
<path d="M102.64 73.05C104.184 77.678 105.699 82.2263 107.223 86.7746C107.667 88.0947 108.1 89.4198 108.578 90.725C108.753 91.2033 108.678 91.4573 108.234 91.7512C105.066 93.8436 101.918 95.9658 98.7646 98.083C97.863 98.6908 96.9813 99.3184 95.985 100.011C95.5665 98.8701 95.178 97.8389 94.8144 96.7977C93.1306 91.9804 91.4519 87.1631 89.7781 82.3408C89.6286 81.9174 89.3796 81.5238 89.9973 81.1353C94.0771 78.5498 98.132 75.9194 102.197 73.304C102.311 73.2293 102.436 73.1646 102.64 73.05Z" fill="#EE4B4B"/>
<path d="M96.3484 41.9591C94.1814 35.6572 92.0494 29.47 89.9024 23.2229C94.2213 20.762 98.5203 18.306 102.909 15.8052C103.288 16.9012 103.636 17.8925 103.97 18.8889C105.609 23.7759 107.248 28.6629 108.882 33.55C109.001 33.9087 109.206 34.2574 108.702 34.5563C104.628 36.9824 100.568 39.4284 96.3484 41.9591Z" fill="#EE4B4B"/>
<path d="M104.414 65.6369C102.352 59.6041 100.31 53.646 98.292 47.6829C98.2223 47.4837 98.3418 47.0602 98.5062 46.9606C102.576 44.4697 106.666 42.0038 110.85 39.4781C111.319 40.8132 111.772 42.0835 112.205 43.3588C113.745 47.927 115.284 52.4903 116.788 57.0684C116.873 57.3225 116.788 57.8306 116.604 57.9452C112.589 60.5108 108.544 63.0415 104.414 65.6369Z" fill="#EE4B4B"/>
<path d="M112.354 88.9211C110.292 82.8633 108.244 76.8604 106.192 70.8226C110.376 68.1375 114.501 65.4922 118.705 62.7971C119.512 65.1734 120.285 67.4301 121.052 69.6918C122.217 73.1192 123.363 76.5565 124.554 79.974C124.758 80.5618 124.673 80.8507 124.145 81.1945C120.324 83.7102 116.524 86.2559 112.718 88.7916C112.653 88.8364 112.563 88.8463 112.354 88.9161V88.9211Z" fill="#EE4B4B"/>
<path d="M58.9733 63.7038C58.0268 63.7785 57.1451 63.8682 56.2584 63.918C52.9108 64.1073 49.5583 64.2667 46.2107 64.4809C45.5083 64.5257 45.1846 64.3215 44.9454 63.644C42.8682 57.7208 40.7461 51.8125 38.6439 45.9042C38.619 45.8295 38.609 45.7498 38.5692 45.5704C39.9739 45.4359 41.3488 45.2914 42.7287 45.1769C45.598 44.9328 48.4723 44.7335 51.3317 44.4346C52.0739 44.3549 52.2782 44.6339 52.4874 45.2366C53.5335 48.2904 54.6145 51.3392 55.6955 54.383C56.7117 57.2425 57.7528 60.097 58.779 62.9565C58.8587 63.1857 58.9035 63.4248 58.9832 63.7137L58.9733 63.7038Z" fill="#EE4B4B"/>
<path d="M47.3361 69.8365C50.4893 69.6671 53.6376 69.4977 56.7859 69.3333C57.9865 69.2686 59.187 69.1889 60.3875 69.1789C60.6266 69.1789 61.0152 69.418 61.0949 69.6372C63.2419 75.6103 65.359 81.5883 67.4762 87.5713C67.531 87.7207 67.531 87.8901 67.5658 88.1043C66.2158 88.1691 64.9107 88.2538 63.6055 88.2937C60.5619 88.3833 57.5182 88.4431 54.4745 88.5427C54.0411 88.5577 53.8219 88.4282 53.6775 88.0197C51.5554 82.0317 49.4283 76.0437 47.3012 70.0607C47.2912 70.0407 47.3112 70.0059 47.3361 69.8465V69.8365Z" fill="#EE4B4B"/>
<path d="M55.7954 93.6939C56.7668 93.6939 57.5987 93.7039 58.4306 93.6939C61.8429 93.6391 65.2552 93.5993 68.6625 93.4997C69.3848 93.4797 69.6837 93.7388 69.9079 94.3814C71.6265 99.2983 73.38 104.205 75.1185 109.112C75.4672 110.099 75.8159 111.09 76.2045 112.196C75.7063 112.221 75.3277 112.261 74.9541 112.256C71.0437 112.226 67.1332 112.176 63.2228 112.176C62.5801 112.176 62.3161 111.967 62.1019 111.369C60.0496 105.555 57.9623 99.7566 55.7954 93.6889V93.6939Z" fill="#EE4B4B"/>
<path d="M3.42464 88.7519C4.41595 84.3182 5.38734 79.9891 6.35374 75.66C6.72237 73.9962 7.11093 72.3373 7.44469 70.6684C7.55428 70.1254 7.80833 69.9211 8.33637 69.8913C11.7138 69.7019 15.0863 69.4927 18.4637 69.3034C19.2807 69.2586 19.8236 69.951 19.6393 70.783C18.9768 73.8417 18.3093 76.9005 17.6418 79.9593C17.0739 82.5547 16.501 85.1452 15.9281 87.7357C15.8434 88.1143 15.8235 88.463 15.2407 88.4729C11.4946 88.5576 7.75354 88.6822 4.00747 88.7918C3.84308 88.7918 3.67869 88.7669 3.41966 88.7469L3.42464 88.7519Z" fill="#EE4B4B"/>
<path d="M14.0103 40.8135C15.3902 34.6313 16.7402 28.5934 18.0951 22.5108C22.1799 22.0176 26.2398 21.5294 30.4293 21.0263C30.0756 22.7101 29.7518 24.2544 29.418 25.7987C28.4715 30.1627 27.5101 34.5266 26.5786 38.8956C26.4491 39.5133 26.21 39.7325 25.5424 39.7873C22.2596 40.0513 18.9868 40.3901 15.704 40.6989C15.181 40.7488 14.6529 40.7687 14.0053 40.8135H14.0103Z" fill="#EE4B4B"/>
<path d="M41.4281 77.5233C38.3994 77.6428 35.4454 77.7674 32.4914 77.8819C31.8488 77.9069 31.1713 77.7873 30.5685 77.9467C29.0193 78.3502 28.1924 77.6578 27.3306 76.4223C24.3218 72.0982 21.1884 67.8638 18.0999 63.5895C18.0351 63.4998 18.0102 63.3902 17.9206 63.191C18.5831 63.1212 19.2008 63.0315 19.8185 62.9917C23.2757 62.7625 26.7378 62.5384 30.1949 62.3441C30.444 62.3291 30.8027 62.4736 30.9421 62.6679C34.4142 67.4951 37.8614 72.3423 41.3136 77.1845C41.3584 77.2493 41.3634 77.3389 41.4232 77.5233H41.4281Z" fill="#EE4B4B"/>
<path d="M53.7134 96.7875C51.4518 96.7875 49.1902 96.7775 46.9286 96.7875C45.5039 96.7925 44.0792 96.8572 42.6545 96.8373C42.3407 96.8373 41.9172 96.6629 41.7429 96.4238C38.4153 91.8407 35.1175 87.2376 31.8148 82.6395C31.77 82.5747 31.76 82.4851 31.6953 82.2858C32.9157 82.221 34.0913 82.1513 35.272 82.1065C38.0666 82.0018 40.8612 81.9271 43.6508 81.7976C44.3432 81.7677 44.7517 81.9719 45.1552 82.5548C47.4068 85.7829 49.783 88.9264 51.9599 92.1994C52.8167 93.4896 53.28 95.0439 53.9176 96.4786C53.8479 96.5832 53.7781 96.6829 53.7084 96.7875H53.7134Z" fill="#EE4B4B"/>
<path d="M21.8215 73.1091C23.2362 75.0619 24.5115 76.8205 25.7817 78.579C28.3522 82.1309 30.9027 85.6978 33.508 89.2249C34.0211 89.9173 34.2104 90.5351 33.9713 91.372C33.6774 92.3882 33.503 93.4344 33.2589 94.5354C30.2601 93.4095 27.321 92.3036 24.377 91.1976C22.6285 90.54 20.8899 89.8526 19.1215 89.2398C18.5885 89.0555 18.4092 88.8313 18.5287 88.2883C19.4104 84.2531 20.2772 80.218 21.149 76.1778C21.3532 75.2313 21.5574 74.2848 21.8165 73.1091H21.8215Z" fill="#EE4B4B"/>
<path d="M15.3752 64.2269C13.0987 64.3714 11.0164 64.5059 8.8196 64.6454C8.95908 63.9081 9.06867 63.2605 9.20815 62.6228C10.3439 57.4967 11.5096 52.3805 12.6055 47.2443C12.7998 46.3377 13.0837 45.9939 14.075 45.9292C17.3927 45.71 20.6954 45.3364 24.0031 45.0325C24.3817 44.9976 24.7703 45.0325 25.2186 45.0325C24.9347 46.3526 24.7553 47.6578 24.3518 48.8933C24.1575 49.4861 23.5697 49.9594 23.1413 50.4675C20.1226 54.0244 17.1088 57.5863 14.0651 61.1233C13.6367 61.6165 13.6965 61.9553 14.0551 62.4036C14.4835 62.9466 14.8671 63.5195 15.3752 64.2319V64.2269Z" fill="#EE4B4B"/>
<path d="M69.653 12.9205C68.3977 14.435 67.2769 15.8099 66.1361 17.1749C63.9493 19.7853 61.7624 22.3957 59.5506 24.9862C59.3414 25.2303 58.9827 25.4445 58.6739 25.4844C55.1819 25.8978 51.6849 26.2715 48.1928 26.66C47.6698 26.7198 47.1467 26.7846 46.3497 26.8792C46.9126 26.1718 47.3161 25.6388 47.7495 25.1307C50.5541 21.7979 53.3736 18.4801 56.1632 15.1324C56.6165 14.5894 57.1545 14.3901 57.8121 14.3104C61.4984 13.8571 65.1797 13.3888 68.861 12.9255C69.0503 12.9006 69.2495 12.9255 69.658 12.9255L69.653 12.9205Z" fill="#EE4B4B"/>
<path d="M17.9106 60.3662C19.8683 58.0348 21.6915 55.8578 23.5297 53.6858C25.2583 51.6383 26.9918 49.5908 28.7453 47.5633C28.9396 47.3391 29.2733 47.1349 29.5623 47.105C31.505 46.9107 33.4578 46.7513 35.4055 46.6267C35.5898 46.6168 35.8987 46.8609 35.9734 47.0502C36.4616 48.2956 36.9249 49.551 37.3284 50.8213C37.418 51.1053 37.3533 51.5586 37.169 51.7828C35.1365 54.2687 33.0792 56.7346 31.0069 59.1856C30.8475 59.3749 30.5486 59.5343 30.3095 59.5492C26.7178 59.7983 23.1212 60.0225 19.5246 60.2517C19.0563 60.2816 18.5881 60.3164 17.9106 60.3662Z" fill="#EE4B4B"/>
<path d="M33.0842 21.4243C36.6261 23.0035 40.133 24.5677 43.7546 26.1868C42.8977 27.213 42.1256 28.1546 41.3336 29.0861C38.2201 32.7477 35.1017 36.4092 31.9833 40.0608C31.6994 40.3946 31.3308 40.9575 31.0518 40.9276C30.4142 40.8579 29.7616 40.559 29.2136 40.2053C29.0443 40.0957 29.114 39.4979 29.1887 39.1442C29.7616 36.3843 30.3693 33.6294 30.9621 30.8746C31.5898 27.9503 32.2175 25.031 32.8501 22.1068C32.895 21.8976 32.9896 21.6933 33.0842 21.4243Z" fill="#EE4B4B"/>
<path d="M56.0441 29.1707C54.3205 31.3327 52.7663 33.2706 50.3802 34.521C45.4386 37.1165 40.6414 39.9959 35.7396 42.6661C34.838 43.1593 33.6923 43.2091 32.6611 43.4632C32.6013 43.3536 32.5465 43.244 32.4867 43.1344C33.1443 42.3323 33.7919 41.5253 34.4594 40.7332C37.2191 37.4702 39.9689 34.2022 42.7635 30.9741C43.0325 30.6652 43.5655 30.4908 43.9989 30.441C46.3552 30.162 48.7214 29.9429 51.0826 29.6987C52.6617 29.5344 54.2408 29.365 56.0391 29.1757L56.0441 29.1707Z" fill="#EE4B4B"/>
<path d="M60.4828 115.011C58.7492 115.011 57.1053 115.021 55.4614 114.996C55.2921 114.996 55.0779 114.797 54.9633 114.632C51.7453 110.208 48.5422 105.785 45.3341 101.356C45.2694 101.271 45.2395 101.162 45.1498 100.967C45.4636 100.947 45.7277 100.913 45.9867 100.913C48.7265 100.873 51.4713 100.868 54.2061 100.778C55.058 100.748 55.4565 100.977 55.7554 101.829C57.2797 106.223 58.8887 110.587 60.4828 115.016V115.011Z" fill="#EE4B4B"/>
<path d="M38.6033 54.2185C40.2223 58.6971 41.8014 63.066 43.3756 67.4399C44.058 69.323 44.7106 71.221 45.423 73.0892C45.6571 73.7069 45.6521 74.1752 45.1689 74.6684C44.7455 75.0968 44.3968 75.6049 43.9235 76.1878C43.4852 75.6049 43.0817 75.0968 42.708 74.5687C39.6245 70.2197 36.5559 65.8657 33.4674 61.5267C33.1934 61.1381 33.0689 60.8442 33.4176 60.4307C35.1263 58.4081 36.82 56.3656 38.6033 54.2185Z" fill="#EE4B4B"/>
<path d="M40.0777 42.5819C41.9407 41.5257 43.8088 40.4646 45.6768 39.4085C47.9833 38.1033 50.2797 36.7732 52.616 35.5228C53.2038 35.209 53.9262 35.0994 54.6036 35.0296C58.2849 34.646 61.9712 34.3023 65.7024 34.0582C64.457 34.7756 63.2166 35.5029 61.9663 36.2153C59.0322 37.8891 56.128 39.6227 53.1391 41.187C52.2225 41.6652 51.0718 41.7699 50.0157 41.8794C46.8824 42.2082 43.7341 42.4573 40.5957 42.7363C40.4363 42.7512 40.2719 42.7363 40.1076 42.7363C40.0976 42.6815 40.0876 42.6267 40.0777 42.5719V42.5819Z" fill="#EE4B4B"/>
<path d="M83.1429 24.0946C80.7219 25.4845 78.3507 26.8395 75.9845 28.1995C74.5548 29.0165 73.1003 29.7986 71.7005 30.6704C70.8536 31.1985 69.952 31.3479 69.0005 31.4426C65.5284 31.7913 62.0563 32.15 58.5842 32.5037C58.4846 32.5137 58.375 32.4887 58.0462 32.4638C59.3265 31.7265 60.4224 31.0839 61.5283 30.4612C64.3528 28.872 67.1623 27.2629 70.0167 25.7236C70.5996 25.4098 71.3268 25.3002 72.0043 25.2205C75.6358 24.797 79.2773 24.4134 82.9137 24.0199C82.9586 24.0199 83.0084 24.0498 83.1429 24.0946Z" fill="#EE4B4B"/>
<path d="M75.2525 22.7047C78.5552 20.8415 81.7683 19.1528 84.8468 17.2448C86.7099 16.089 88.6875 15.7403 90.7847 15.5311C93.7786 15.2272 96.7625 14.8237 99.8012 14.5746C98.5558 15.2919 97.3105 16.0193 96.0601 16.7317C93.5096 18.1863 90.974 19.6609 88.3986 21.0607C87.8407 21.3646 87.1383 21.4692 86.4907 21.544C82.8592 21.9724 79.2228 22.361 75.5863 22.7595C75.5315 22.7645 75.4767 22.7446 75.2525 22.7047Z" fill="#EE4B4B"/>
<path d="M62.1711 27.8508C61.1549 26.6104 61.3591 26.8146 62.206 25.8233C65.3144 22.1617 68.388 18.4653 71.4715 14.7839C71.6459 14.5746 71.8451 14.3853 72.0743 14.1362C73.3794 16.109 74.6547 18.0369 75.9997 20.0694C71.3769 22.6699 66.7889 25.2504 62.1711 27.8508Z" fill="#EE4B4B"/>
<path d="M29.7722 96.3442C26.3649 96.3442 22.9576 96.4239 19.5552 96.2993C18.4593 96.2595 17.3734 95.7065 16.3023 95.3279C12.8701 94.1024 9.44783 92.847 6.02556 91.6016C5.92593 91.5667 5.83626 91.492 5.56228 91.3326C6.40415 91.2927 7.07167 91.2529 7.73918 91.2379C10.3644 91.1682 12.9897 91.1034 15.6149 91.0486C15.9188 91.0436 16.2426 91.0486 16.5215 91.1532C20.9451 92.7723 25.3636 94.4063 29.7822 96.0353C29.7822 96.1399 29.7772 96.2495 29.7722 96.3541V96.3442Z" fill="#EE4B4B"/>
<path d="M43.3757 103.059C40.4117 102.92 37.637 103.353 34.8922 102.148C31.7938 100.783 28.5259 99.7913 25.3328 98.6356C25.1285 98.5608 24.9393 98.4512 24.75 98.242C25.8509 98.242 26.9468 98.2569 28.0477 98.242C30.0602 98.2121 32.0727 98.1175 34.0852 98.1473C34.952 98.1623 35.8387 98.3566 36.6806 98.6007C37.6968 98.8896 38.6483 99.4426 39.6744 99.6568C41.5375 100.05 42.3595 101.48 43.3757 103.059Z" fill="#EE4B4B"/>
<path d="M47.7543 79.6302C48.1528 80.7411 48.5464 81.8471 48.9449 82.958C48.8951 82.9879 48.8453 83.0128 48.7954 83.0427C48.2325 82.2556 47.6148 81.4934 47.1416 80.6515C47.0171 80.4323 47.3408 79.959 47.4604 79.6053C47.56 79.6153 47.6597 79.6252 47.7543 79.6352V79.6302Z" fill="#EE4B4B"/>
<path d="M43.0371 105.082C43.889 105.087 44.95 104.534 45.3884 105.949C44.5415 105.64 43.7893 105.361 43.0371 105.082Z" fill="#EE4B4B"/>
<path d="M38.3992 96.379C38.0555 96.2445 37.7168 96.11 37.3531 95.9655C37.4378 95.6616 37.5076 95.4025 37.6172 94.994C37.9708 95.4673 38.2448 95.831 38.5138 96.1946C38.474 96.2544 38.4341 96.3192 38.3992 96.379Z" fill="#EE4B4B"/>
</svg>
